<svg xmlns="http://www.w3.org/2000/svg" fill="none" width="348" height="348"><rect id="backgroundrect" width="100%" height="100%" x="0" y="0" fill="none" stroke="none"/><g class="currentLayer" style=""><title>Layer 1</title><path d="M5.079,6.442666686534881 h336.913 v337.67 H5.08 z" stroke-width="2" stroke="#000" id="svg_1" class=""/><path d="M282.734 40.554c0-8.376 6.966-15.165 15.56-15.165 4.126 0 8.084 1.597 11.001 4.441 2.918 2.844 4.558 6.702 4.558 10.724 0 8.376-6.966 15.165-15.56 15.165-8.593 0-15.559-6.79-15.559-15.165z" stroke-width="2" stroke="#000" id="svg_2"/><path fill="#ffffff" fill-opacity="1" stroke="#000000" stroke-opacity="1" stroke-width="2" stroke-dasharray="none" stroke-linejoin="round" stroke-linecap="butt" stroke-dashoffset="" fill-rule="nonzero" opacity="1" marker-start="" marker-mid="" marker-end="" d="M29.66666773785937,173.99999982625886 C29.66666773785937,152.45303952114503 47.11970683867495,135.00000167400285 68.66666869153369,135.00000167400285 C90.21363054439243,135.00000167400285 107.666669645208,152.45303952114503 107.666669645208,173.99999982625886 C107.666669645208,195.54696013137269 90.21363054439243,212.99999797851487 68.66666869153369,212.99999797851487 C47.11970683867495,212.99999797851487 29.66666773785937,195.54696013137269 29.66666773785937,173.99999982625886 z" id="svg_3" class=""/><path fill="#ffffff" fill-opacity="1" stroke="#000000" stroke-opacity="1" stroke-width="2" stroke-dasharray="none" stroke-linejoin="round" stroke-linecap="butt" stroke-dashoffset="" fill-rule="nonzero" opacity="1" marker-start="" marker-mid="" marker-end="" d="M133.0000036143242,173.33333379537507 C133.0000036143242,151.78637349026124 150.4530427151398,134.33333564311906 172.00000456799853,134.33333564311906 C193.54696642085727,134.33333564311906 211.00000552167285,151.78637349026124 211.00000552167285,173.33333379537507 C211.00000552167285,194.8802941004889 193.54696642085727,212.33333194763108 172.00000456799853,212.33333194763108 C150.4530427151398,212.33333194763108 133.0000036143242,194.8802941004889 133.0000036143242,173.33333379537507 z" class="" id="svg_6"/><path fill="#ffffff" fill-opacity="1" stroke="#000000" stroke-opacity="1" stroke-width="2" stroke-dasharray="none" stroke-linejoin="round" stroke-linecap="butt" stroke-dashoffset="" fill-rule="nonzero" opacity="1" marker-start="" marker-mid="" marker-end="" d="M21.666667847465135,38.66666732334221 C21.666667847465135,28.90607969110542 29.572745437762393,21.00000370899363 39.3333350554133,21.00000370899363 C49.09392467306424,21.00000370899363 57.000002263361466,28.90607969110542 57.000002263361466,38.66666732334221 C57.000002263361466,48.42725495557899 49.09392467306424,56.33333093769079 39.3333350554133,56.33333093769079 C29.572745437762393,56.33333093769079 21.666667847465135,48.42725495557899 21.666667847465135,38.66666732334221 z" class="" id="svg_9"/><path fill="#ffffff" fill-opacity="1" stroke="#000000" stroke-opacity="1" stroke-width="2" stroke-dasharray="none" stroke-linejoin="round" stroke-linecap="butt" stroke-dashoffset="" fill-rule="nonzero" opacity="1" marker-start="" marker-mid="" marker-end="" d="M67.66666784746513,38.00000129245842 C67.66666784746513,28.23941366022163 75.57274543776239,20.333337678109842 85.3333350554133,20.333337678109842 C95.09392467306424,20.333337678109842 103.00000226336147,28.23941366022163 103.00000226336147,38.00000129245842 C103.00000226336147,47.7605889246952 95.09392467306424,55.666664906807 85.3333350554133,55.666664906807 C75.57274543776239,55.666664906807 67.66666784746513,47.7605889246952 67.66666784746513,38.00000129245842 z" class="" id="svg_10"/><path fill="#ffffff" fill-opacity="1" stroke="#000000" stroke-opacity="1" stroke-width="2" stroke-dasharray="none" stroke-linejoin="round" stroke-linecap="butt" stroke-dashoffset="" fill-rule="nonzero" opacity="1" marker-start="" marker-mid="" marker-end="" d="M114.33333387834892,38.00000129245842 C114.33333387834892,28.23941366022163 122.23941146864618,20.333337678109842 132.0000010862971,20.333337678109842 C141.76059070394803,20.333337678109842 149.66666829424526,28.23941366022163 149.66666829424526,38.00000129245842 C149.66666829424526,47.7605889246952 141.76059070394803,55.666664906807 132.0000010862971,55.666664906807 C122.23941146864618,55.666664906807 114.33333387834892,47.7605889246952 114.33333387834892,38.00000129245842 z" class="" id="svg_11"/><path fill="#ffffff" fill-opacity="1" stroke="#000000" stroke-opacity="1" stroke-width="2" stroke-dasharray="none" stroke-linejoin="round" stroke-linecap="butt" stroke-dashoffset="" fill-rule="nonzero" opacity="1" marker-start="" marker-mid="" marker-end="" d="M160.9999999092327,37.33333526157463 C160.9999999092327,27.57274762933784 168.90607749952997,19.666671647226053 178.66666711718088,19.666671647226053 C188.42725673483181,19.666671647226053 196.33333432512904,27.57274762933784 196.33333432512904,37.33333526157463 C196.33333432512904,47.09392289381141 188.42725673483181,54.99999887592321 178.66666711718088,54.99999887592321 C168.90607749952997,54.99999887592321 160.9999999092327,47.09392289381141 160.9999999092327,37.33333526157463 z" class="" id="svg_12"/><path fill="#ffffff" fill-opacity="1" stroke="#000000" stroke-opacity="1" stroke-width="2" stroke-dasharray="none" stroke-linejoin="round" stroke-linecap="butt" stroke-dashoffset="" fill-rule="nonzero" opacity="1" marker-start="" marker-mid="" marker-end="" d="M206.9999999092327,37.33333526157463 C206.9999999092327,27.57274762933784 214.90607749952997,19.666671647226053 224.66666711718088,19.666671647226053 C234.42725673483181,19.666671647226053 242.33333432512904,27.57274762933784 242.33333432512904,37.33333526157463 C242.33333432512904,47.09392289381141 234.42725673483181,54.99999887592321 224.66666711718088,54.99999887592321 C214.90607749952997,54.99999887592321 206.9999999092327,47.09392289381141 206.9999999092327,37.33333526157463 z" class="" id="svg_13"/><path fill="#ffffff" fill-opacity="1" stroke="#000000" stroke-opacity="1" stroke-width="2" stroke-dasharray="none" stroke-linejoin="round" stroke-linecap="butt" stroke-dashoffset="" fill-rule="nonzero" opacity="1" marker-start="" marker-mid="" marker-end="" d="M233.66666773785937,173.99999982625886 C233.66666773785937,152.45303952114503 251.11970683867494,135.00000167400285 272.6666686915337,135.00000167400285 C294.21363054439246,135.00000167400285 311.666669645208,152.45303952114503 311.666669645208,173.99999982625886 C311.666669645208,195.54696013137269 294.21363054439246,212.99999797851487 272.6666686915337,212.99999797851487 C251.11970683867494,212.99999797851487 233.66666773785937,195.54696013137269 233.66666773785937,173.99999982625886 z" class="" id="svg_7"/></g></svg>